<svg id="a" xmlns="http://www.w3.org/2000/svg" viewBox="0 0 453.64 226.09"><path d="M121.5 120.46c1.32 6.26 4.34 11.07 9.06 14.42 4.72 3.35 10.49 5.03 17.3 5.03 9.45 0 16.53-3.4 21.25-10.22l14.66 8.57c-8.13 11.97-20.16 17.96-36.08 17.96-13.4 0-24.22-4.09-32.46-12.28-8.24-8.18-12.36-18.54-12.36-31.06s4.06-22.6 12.19-30.89c8.13-8.29 18.56-12.44 31.31-12.44 12.08 0 22 4.23 29.74 12.69 7.74 8.46 11.62 18.73 11.62 30.81 0 1.87-.22 4.34-.66 7.42H121.5zm-.17-14.5h48.44c-1.21-6.7-3.98-11.75-8.32-15.16-4.34-3.4-9.42-5.11-15.24-5.11-6.59 0-12.08 1.81-16.48 5.44-4.39 3.63-7.2 8.57-8.4 14.83zm94.74-11.65c0 2.71 1.52 4.86 4.56 6.43 3.04 1.57 6.7 3.01 10.96 4.33 4.26 1.31 8.63 2.66 13.1 4.04s8.21 3.93 11.2 7.65c3 3.72 4.5 8.42 4.5 14.08 0 7.91-3.05 14.12-9.14 18.62-6.1 4.51-13.76 6.76-22.98 6.76-8.13 0-15.1-1.71-20.93-5.11-5.82-3.4-10.05-8.13-12.69-14.17l15.32-8.9c2.85 7.91 8.95 11.86 18.29 11.86s14-3.08 14-9.23c0-2.64-1.51-4.78-4.53-6.42-3.02-1.65-6.66-3.13-10.92-4.44s-8.63-2.66-13.1-4.04c-4.47-1.38-8.22-3.85-11.24-7.42-3.02-3.57-4.53-8.1-4.53-13.59 0-7.58 2.88-13.68 8.65-18.29 5.77-4.61 12.93-6.92 21.5-6.92 6.81 0 12.88 1.51 18.21 4.53 5.33 3.02 9.42 7.22 12.27 12.6l-14.99 8.4c-2.86-6.26-8.02-9.39-15.49-9.39-3.41 0-6.26.73-8.57 2.2-2.31 1.46-3.46 3.61-3.46 6.42zm103.31-24.76c9.45 0 17.08 3.02 22.9 9.06 5.82 6.04 8.73 14.33 8.73 24.88v50.58h-17.8V105.3c0-6.15-1.65-10.87-4.94-14.17-3.3-3.29-7.8-4.94-13.51-4.94-6.26 0-11.31 1.95-15.16 5.85-3.85 3.9-5.77 9.86-5.77 17.88v44.16h-17.8V71.69h17.8v10.55c5.38-8.46 13.89-12.69 25.54-12.69zm115.99 2.14h17.8v82.38h-17.8v-11.86c-6.7 9.34-16.31 14.01-28.83 14.01-11.31 0-20.98-4.2-29-12.6-8.02-8.4-12.03-18.65-12.03-30.73s4.01-22.46 12.03-30.81c8.02-8.35 17.68-12.52 29-12.52 12.52 0 22.13 4.61 28.83 13.84V71.7zm-44.65 60.06c4.94 5 11.15 7.5 18.62 7.5s13.68-2.5 18.62-7.5c4.94-5 7.41-11.29 7.41-18.87s-2.47-13.87-7.41-18.87c-4.94-5-11.15-7.5-18.62-7.5s-13.68 2.5-18.62 7.5c-4.94 5-7.42 11.29-7.42 18.87s2.47 13.87 7.42 18.87z"/><path d="M157.52 15.8C151.42 5.9 140.83 0 129.2 0c-12.32 0-23.57 6.76-29.36 17.63L39.73 130.49c-1.6 3-4.7 4.87-8.11 4.87-4.63 0-7.01-3.05-7.82-4.36-.81-1.31-2.47-4.81-.39-8.95L84.7 0H.96v22.4h47.42L3.39 112C1.17 116.42 0 121.33 0 126.2c0 5.81 1.64 11.54 4.73 16.56 5.79 9.39 15.84 15 26.88 15 11.7 0 22.38-6.41 27.88-16.74l60.12-112.86c1.89-3.55 5.57-5.76 9.59-5.76 5.47 0 8.29 3.61 9.25 5.16.95 1.54 2.9 5.66.49 10.53l-4.51 8.95 25.03.17c4.66-10.18 3.96-21.83-1.95-31.4zm137.16 160.88c4.57 0 8.4 1.52 11.47 4.57 3.07 3.05 4.61 6.84 4.61 11.37s-1.54 8.26-4.61 11.33-6.89 4.61-11.47 4.61h-9.91v16.63h-7.97v-48.51h17.88zm0 24.39c2.36 0 4.3-.8 5.82-2.39 1.52-1.59 2.29-3.61 2.29-6.06s-.76-4.47-2.29-6.06c-1.52-1.59-3.46-2.39-5.82-2.39h-9.91v16.91h9.91zm53.01-10.53h7.48v34.65h-7.48v-4.43c-2.26 3.56-5.84 5.33-10.74 5.33-3.97 0-7.18-1.27-9.63-3.81-2.45-2.54-3.67-6.03-3.67-10.46v-21.27h7.48v20.51c0 2.59.69 4.57 2.08 5.96 1.39 1.39 3.28 2.08 5.68 2.08 2.63 0 4.76-.82 6.38-2.46 1.62-1.64 2.42-4.15 2.42-7.52v-18.57zm42.96-.9c4.76 0 8.82 1.76 12.2 5.27 3.37 3.51 5.06 7.83 5.06 12.96s-1.69 9.39-5.06 12.92c-3.37 3.53-7.44 5.3-12.2 5.3-5.27 0-9.31-1.96-12.13-5.89v4.99h-7.48v-48.51h7.48v18.78c2.82-3.88 6.86-5.82 12.13-5.82zm-9.01 26.16c2.08 2.1 4.69 3.15 7.83 3.15s5.75-1.05 7.83-3.15c2.08-2.1 3.12-4.75 3.12-7.93s-1.04-5.83-3.12-7.93c-2.08-2.1-4.69-3.15-7.83-3.15s-5.75 1.05-7.83 3.15c-2.08 2.1-3.12 4.75-3.12 7.93s1.04 5.83 3.12 7.93zm40.2 9.39V174.6h7.48v50.59h-7.48zm30.38-41.27c-.95.95-2.07 1.42-3.36 1.42s-2.41-.47-3.36-1.42-1.42-2.07-1.42-3.36.46-2.41 1.39-3.36c.92-.95 2.05-1.42 3.4-1.42s2.47.47 3.39 1.42c.92.95 1.39 2.07 1.39 3.36s-.47 2.41-1.42 3.36zm-7.1 41.27v-34.65h7.48v34.65h-7.48z"/></svg>