<?xml version="1.0" encoding="utf-8"?>
<!-- Generator: Adobe Illustrator 22.0.1, SVG Export Plug-In . SVG Version: 6.00 Build 0)  -->
<svg version="1.1" id="Camada_1" xmlns="http://www.w3.org/2000/svg" xmlns:xlink="http://www.w3.org/1999/xlink" x="0px" y="0px"
	 viewBox="0 0 73.3 64.8" style="enable-background:new 0 0 73.3 64.8;" xml:space="preserve">
<style type="text/css">
	.st0{fill:#1E0E00;}
</style>
<path class="st0" d="M1.3,62.5L36.4,1.4l35.3,61L1.3,62.5z M36.5,7.7L6.7,59.4l59.7-0.1L36.5,7.7z"/>
<g>
	<path d="M38.1,52.2c-0.8,0.4-2.6,1-4.8,1c-5.1,0-8.4-3.4-8.4-8.6c0-5.2,3.5-8.9,9-8.9c1.8,0,3.4,0.5,4.2,0.9l-0.7,2.4
		c-0.7-0.4-1.9-0.8-3.5-0.8c-3.9,0-5.9,2.8-5.9,6.4c0,3.9,2.5,6.3,5.8,6.3c1.7,0,2.9-0.5,3.8-0.8L38.1,52.2z"/>
	<path d="M41.7,28.2h3.1v24.7h-3.1V28.2z"/>
</g>
</svg>
