<?xml version="1.0" encoding="utf-8"?>
<!-- Generator: Adobe Illustrator 22.0.1, SVG Export Plug-In . SVG Version: 6.00 Build 0)  -->
<svg version="1.1" id="Camada_1" xmlns="http://www.w3.org/2000/svg" xmlns:xlink="http://www.w3.org/1999/xlink" x="0px" y="0px"
	 viewBox="0 0 61.5 60.6" style="enable-background:new 0 0 61.5 60.6;" xml:space="preserve">
<style type="text/css">
	.st0{fill:#1E0E00;}
</style>
<path class="st0" d="M59.5,59.1H1.7V1.3h57.8V59.1z M4.8,56h51.6V4.4H4.8V56z"/>
<rect x="-2.4" y="15.7" transform="matrix(0.7052 -0.709 0.709 0.7052 -6.9973 17.656)" class="st0" width="40.3" height="3.1"/>
<polygon class="st0" points="27,1.4 23.9,4.5 5.1,23.7 4.9,23.9 2.7,26.2 2,25.5 2,22.5 4.9,19.4 5.1,19.3 19.6,4.5 22.6,1.4 "/>
<polygon class="st0" points="18.3,1.4 15.7,4.1 15.2,4.5 5.1,14.9 3.8,16.1 2,18 2,13.6 3.8,11.7 5.1,10.4 10.9,4.5 11.3,4.1 
	13.9,1.4 "/>
</svg>
