<svg version="1.1" id="Camada_1" xmlns="http://www.w3.org/2000/svg" x="0" y="0" viewBox="0 0 105.6 52.1" xml:space="preserve"><style>.st0{fill:#1e0e00}</style><path class="st0" d="M83.3 50.4H22L1.8 3.2 4.7 2l19.4 45.3h57.2L100.6 2l2.9 1.2z"/><path class="st0" d="M10.9 18.1l-2.8-1.3c1.4-3 5.5-9.8 13-9.8h.2c3.9.1 7.6 1.9 10.1 4.9.1.1 2.1 2.5 6.4 2.4 2.5-.1 4.8-1 6.6-2.5.7-.9 5-5.5 12.6-3.7 1.9.4 3.8 1.4 5.5 2.9l.8.7c1.7 1.2 3.6 1.8 5.6 1.8 3.2.1 5.5-1.5 8-3.8C80.1 7 84.2 6 88.5 6.9c3.5.7 6.4 3.5 8.1 5.1l.7.7-2.1 2.3-.8-.8c-1.5-1.4-3.9-3.8-6.5-4.3-3.4-.7-6.5.1-8.9 2.1-2.5 2.4-5.5 4.6-10 4.6h-.2c-3.1 0-6.1-1.2-8.5-3.3l-.9-.8c-1-.7-2.1-1.2-3.1-1.5-6.3-1.4-9.5 2.7-9.5 2.7l-.2.3c-2.4 2.1-5.4 3.3-8.7 3.4-6 .2-8.8-3.4-8.9-3.6-1.9-2.4-4.7-3.7-7.7-3.8h-.2c-5.8.1-9.1 5.7-10.2 8.1z"/></svg>