<svg version="1.1" id="Camada_1" xmlns="http://www.w3.org/2000/svg" x="0" y="0" viewBox="0 0 87.4 52.9" xml:space="preserve"><style>.st0{fill:#1e0e00}</style><path class="st0" d="M30 36.5c0 3.5-2.9 6.4-6.4 6.4-3.5 0-6.4-2.9-6.4-6.4 0-3.5 2.9-6.4 6.4-6.4 3.5-.1 6.4 2.8 6.4 6.4z"/><path class="st0" d="M86.1 51.9H1.4v-1.6c0-1 .9-24.5 17.4-29.1l.4-.1 55.2-.1-4.5-16.4H28.2V1.5h44.1l13.8 50.4zM4.7 48.8H82l-6.7-24.6-55.8.1C7.7 27.7 5.2 43.6 4.7 48.8z"/><path class="st0" d="M51 36.5c0 3.5-2.9 6.4-6.4 6.4-3.5 0-6.4-2.9-6.4-6.4 0-3.5 2.9-6.4 6.4-6.4 3.5-.1 6.4 2.8 6.4 6.4zm20 0c0 3.5-2.9 6.4-6.4 6.4-3.5 0-6.4-2.9-6.4-6.4 0-3.5 2.9-6.4 6.4-6.4 3.5-.1 6.4 2.8 6.4 6.4z"/></svg>