<?xml version="1.0" encoding="utf-8"?>
<!-- Generator: Adobe Illustrator 22.0.1, SVG Export Plug-In . SVG Version: 6.00 Build 0)  -->
<svg version="1.1" id="Camada_1" xmlns="http://www.w3.org/2000/svg" xmlns:xlink="http://www.w3.org/1999/xlink" x="0px" y="0px"
	 viewBox="0 0 127.4 59.3" style="enable-background:new 0 0 127.4 59.3;" xml:space="preserve">
<style type="text/css">
	.st0{fill:#1E0E00;}
</style>
<path class="st0" d="M106.1,52.2H21.4l0-1.6c0-1,0.9-24.5,17.4-29.1l0.4-0.1l55.2-0.1L89.9,4.9H48.2V1.7h44.1L106.1,52.2z
	 M24.7,49.1h77.3l-6.7-24.6l-55.8,0.1C27.7,28,25.2,43.9,24.7,49.1z"/>
<g>
	<line class="st0" x1="1.4" y1="16.8" x2="126.3" y2="56.4"/>
	
		<rect x="62.3" y="-28.9" transform="matrix(0.3025 -0.9531 0.9531 0.3025 9.6759 86.3957)" class="st0" width="3.1" height="131.1"/>
</g>
<g>
	<line class="st0" x1="126.3" y1="16.8" x2="1.4" y2="56.4"/>
	<rect x="-1.7" y="35" transform="matrix(0.9531 -0.3027 0.3027 0.9531 -8.0787 21.0511)" class="st0" width="131.1" height="3.1"/>
</g>
</svg>
