<svg version="1.1" id="Camada_1" xmlns="http://www.w3.org/2000/svg" x="0" y="0" viewBox="0 0 127.4 59.3" xml:space="preserve"><style>.st0{fill:#1e0e00}</style><path class="st0" d="M106.1 52.2H21.4v-1.6c0-1 .9-24.5 17.4-29.1l.4-.1 55.2-.1-4.5-16.4H48.2V1.7h44.1l13.8 50.5zm-81.4-3.1H102l-6.7-24.6-55.8.1C27.7 28 25.2 43.9 24.7 49.1zM1.4 16.8l124.9 39.6"/><path transform="rotate(-72.391 63.873 36.588)" class="st0" d="M62.3-28.9h3.1v131.1h-3.1z"/><path class="st0" d="M126.3 16.8L1.4 56.4"/><path transform="rotate(-17.617 63.876 36.586)" class="st0" d="M-1.7 35h131.1v3.1H-1.7z"/></svg>