<svg version="1.1" id="Camada_1" xmlns="http://www.w3.org/2000/svg" x="0" y="0" viewBox="0 0 127.4 73.8" xml:space="preserve"><style>.st0{fill:#1e0e00}</style><path class="st0" d="M106.1 52.2H21.4v-1.6c0-1 .9-24.5 17.4-29.1l.4-.1 55.2-.1-4.5-16.4H48.2V1.7h44.1l13.8 50.5zm-81.4-3.1H102l-6.7-24.6-55.8.1C27.7 28 25.2 43.9 24.7 49.1zm57.6 1.8L49 72"/><path transform="rotate(-32.36 65.649 61.426)" class="st0" d="M45.9 59.9h39.5V63H45.9z"/><path class="st0" d="M48.6 50.8l33.7 21.4"/><path transform="rotate(-57.609 65.453 61.514)" class="st0" d="M63.9 41.5H67v39.9h-3.1z"/><path class="st0" d="M60.4 50.8l-4.7 16.9"/><path transform="rotate(-74.467 58.082 59.263)" class="st0" d="M49.3 57.7h17.5v3.1H49.3z"/><path class="st0" d="M70.8 50.8l4.7 16.9"/><path transform="rotate(-15.549 73.2 59.276)" class="st0" d="M71.6 50.5h3.1V68h-3.1z"/></svg>