<?xml version="1.0" encoding="utf-8"?>
<!-- Generator: Adobe Illustrator 22.0.1, SVG Export Plug-In . SVG Version: 6.00 Build 0)  -->
<svg version="1.1" id="Camada_1" xmlns="http://www.w3.org/2000/svg" xmlns:xlink="http://www.w3.org/1999/xlink" x="0px" y="0px"
	 viewBox="0 0 127.4 73.8" style="enable-background:new 0 0 127.4 73.8;" xml:space="preserve">
<style type="text/css">
	.st0{fill:#1E0E00;}
</style>
<path class="st0" d="M106.1,52.2H21.4l0-1.6c0-1,0.9-24.5,17.4-29.1l0.4-0.1l55.2-0.1L89.9,4.9H48.2V1.7h44.1L106.1,52.2z
	 M24.7,49.1h77.3l-6.7-24.6l-55.8,0.1C27.7,28,25.2,43.9,24.7,49.1z"/>
<g>
	<line class="st0" x1="82.3" y1="50.9" x2="49" y2="72"/>
	
		<rect x="45.9" y="59.9" transform="matrix(0.8447 -0.5352 0.5352 0.8447 -22.6799 44.6748)" class="st0" width="39.5" height="3.1"/>
</g>
<g>
	<line class="st0" x1="48.6" y1="50.8" x2="82.3" y2="72.2"/>
	
		<rect x="63.9" y="41.5" transform="matrix(0.5357 -0.8444 0.8444 0.5357 -21.5526 83.8297)" class="st0" width="3.1" height="39.9"/>
</g>
<g>
	<line class="st0" x1="60.4" y1="50.8" x2="55.7" y2="67.7"/>
	
		<rect x="49.3" y="57.7" transform="matrix(0.2678 -0.9635 0.9635 0.2678 -14.572 99.3538)" class="st0" width="17.5" height="3.1"/>
</g>
<g>
	<line class="st0" x1="70.8" y1="50.8" x2="75.5" y2="67.7"/>
	<rect x="71.6" y="50.5" transform="matrix(0.9634 -0.268 0.268 0.9634 -13.2069 21.787)" class="st0" width="3.1" height="17.5"/>
</g>
</svg>
