<?xml version="1.0" encoding="utf-8"?>
<!-- Generator: Adobe Illustrator 22.0.1, SVG Export Plug-In . SVG Version: 6.00 Build 0)  -->
<svg version="1.1" id="Camada_1" xmlns="http://www.w3.org/2000/svg" xmlns:xlink="http://www.w3.org/1999/xlink" x="0px" y="0px"
	 viewBox="0 0 60.8 59.5" style="enable-background:new 0 0 60.8 59.5;" xml:space="preserve">
<style type="text/css">
	.st0{fill:#1E0E00;}
</style>
<path class="st0" d="M30.9,58.8C15,58.8,2,45.8,2,29.9C2,13.9,15,1,30.9,1s28.9,13,28.9,28.9C59.8,45.8,46.8,58.8,30.9,58.8z
	 M30.9,4.1C16.7,4.1,5.1,15.7,5.1,29.9c0,14.2,11.6,25.8,25.8,25.8c14.2,0,25.8-11.6,25.8-25.8C56.7,15.7,45.1,4.1,30.9,4.1z"/>
<g>
	<path d="M26.6,32.1l-2.4,7.4h-3.1L29,16h3.6l8,23.4h-3.2l-2.5-7.4H26.6z M34.3,29.7L32,23c-0.5-1.5-0.9-2.9-1.2-4.3h-0.1
		c-0.3,1.4-0.7,2.8-1.2,4.2l-2.3,6.8H34.3z"/>
</g>
</svg>
