<svg version="1.1" id="Camada_1" xmlns="http://www.w3.org/2000/svg" x="0" y="0" viewBox="0 0 60.8 59.5" xml:space="preserve"><path d="M30.9 58.8C15 58.8 2 45.8 2 29.9 2 13.9 15 1 30.9 1s28.9 13 28.9 28.9c0 15.9-13 28.9-28.9 28.9zm0-54.7C16.7 4.1 5.1 15.7 5.1 29.9c0 14.2 11.6 25.8 25.8 25.8 14.2 0 25.8-11.6 25.8-25.8 0-14.2-11.6-25.8-25.8-25.8z" fill="#1e0e00"/><path d="M26.6 32.1l-2.4 7.4h-3.1L29 16h3.6l8 23.4h-3.2L34.9 32h-8.3zm7.7-2.4L32 23c-.5-1.5-.9-2.9-1.2-4.3h-.1c-.3 1.4-.7 2.8-1.2 4.2l-2.3 6.8h7.1z"/></svg>