<svg version="1.1" id="Camada_1" xmlns="http://www.w3.org/2000/svg" x="0" y="0" viewBox="0 0 60.8 59.5" xml:space="preserve"><path d="M30.9 58.8C15 58.8 2 45.8 2 29.9 2 13.9 15 1 30.9 1s28.9 13 28.9 28.9c0 15.9-13 28.9-28.9 28.9zm0-54.7C16.7 4.1 5.1 15.7 5.1 29.9c0 14.2 11.6 25.8 25.8 25.8 14.2 0 25.8-11.6 25.8-25.8 0-14.2-11.6-25.8-25.8-25.8z" fill="#1e0e00"/><path d="M25.9 17.7c1.5-.2 3.4-.5 5.8-.5 3 0 5.2.7 6.6 1.9 1.3 1.1 2 2.8 2 4.9 0 2.1-.6 3.8-1.8 5-1.6 1.7-4.2 2.6-7.2 2.6-.9 0-1.7 0-2.4-.2v9.4h-3V17.7zM29 29c.7.2 1.5.2 2.5.2 3.6 0 5.9-1.8 5.9-5 0-3.1-2.2-4.6-5.5-4.6-1.3 0-2.3.1-2.8.2V29z"/></svg>