<?xml version="1.0" encoding="utf-8"?>
<!-- Generator: Adobe Illustrator 22.0.1, SVG Export Plug-In . SVG Version: 6.00 Build 0)  -->
<svg version="1.1" id="Camada_1" xmlns="http://www.w3.org/2000/svg" xmlns:xlink="http://www.w3.org/1999/xlink" x="0px" y="0px"
	 viewBox="0 0 79.9 79.3" style="enable-background:new 0 0 79.9 79.3;" xml:space="preserve">
<style type="text/css">
	.st0{fill:#1E0E00;}
</style>
<path class="st0" d="M39.7,69c-15.9,0-28.9-13-28.9-28.9c0-15.9,13-28.9,28.9-28.9s28.9,13,28.9,28.9C68.6,56.1,55.7,69,39.7,69z
	 M39.7,14.3c-14.2,0-25.8,11.6-25.8,25.8c0,14.2,11.6,25.8,25.8,25.8c14.2,0,25.8-11.6,25.8-25.8C65.5,25.9,53.9,14.3,39.7,14.3z"/>
<g>
	<line class="st0" x1="77.5" y1="2.9" x2="2.1" y2="76.8"/>
	<rect x="-13" y="38.3" transform="matrix(0.714 -0.7002 0.7002 0.714 -16.5232 39.2598)" class="st0" width="105.6" height="3.1"/>
</g>
<g>
	<line class="st0" x1="1.2" y1="2.8" x2="77.5" y2="77.6"/>
	
		<rect x="37.8" y="-13.2" transform="matrix(0.7001 -0.714 0.714 0.7001 -16.8839 40.135)" class="st0" width="3.1" height="106.8"/>
</g>
</svg>
