<svg version="1.1" id="Camada_1" xmlns="http://www.w3.org/2000/svg" x="0" y="0" viewBox="0 0 79.9 79.3" xml:space="preserve"><style>.st0{fill:#1e0e00}</style><path class="st0" d="M39.7 69c-15.9 0-28.9-13-28.9-28.9 0-15.9 13-28.9 28.9-28.9s28.9 13 28.9 28.9c0 16-12.9 28.9-28.9 28.9zm0-54.7c-14.2 0-25.8 11.6-25.8 25.8 0 14.2 11.6 25.8 25.8 25.8 14.2 0 25.8-11.6 25.8-25.8 0-14.2-11.6-25.8-25.8-25.8zM77.5 2.9L2.1 76.8"/><path transform="rotate(-44.441 39.79 39.852)" class="st0" d="M-13 38.3H92.6v3.1H-13z"/><path class="st0" d="M1.2 2.8l76.3 74.8"/><path transform="rotate(-45.563 39.341 40.17)" class="st0" d="M37.8-13.2h3.1V93.6h-3.1z"/></svg>