<?xml version="1.0" encoding="utf-8"?>
<!-- Generator: Adobe Illustrator 22.0.1, SVG Export Plug-In . SVG Version: 6.00 Build 0)  -->
<svg version="1.1" id="Camada_1" xmlns="http://www.w3.org/2000/svg" xmlns:xlink="http://www.w3.org/1999/xlink" x="0px" y="0px"
	 viewBox="0 0 105.6 62.9" style="enable-background:new 0 0 105.6 62.9;" xml:space="preserve">
<style type="text/css">
	.st0{fill:#1E0E00;}
	.st1{fill:none;}
</style>
<g>
	<polygon class="st0" points="83.3,50.2 22,50.2 1.8,3 4.7,1.8 24.1,47.1 81.3,47.1 100.6,1.8 103.5,3 	"/>
	<path class="st0" d="M10.9,17.9l-2.8-1.3c1.4-3,5.5-9.8,13-9.8c0.1,0,0.2,0,0.2,0c3.9,0.1,7.6,1.9,10.1,4.9
		c0.1,0.1,2.1,2.5,6.4,2.4c2.5-0.1,4.8-1,6.6-2.5c0.7-0.9,5-5.5,12.6-3.7c1.9,0.4,3.8,1.4,5.5,2.9l0.8,0.7c1.7,1.2,3.6,1.8,5.6,1.8
		c3.2,0.1,5.5-1.5,8-3.8c3.2-2.7,7.3-3.7,11.6-2.8c3.5,0.7,6.4,3.5,8.1,5.1c0.3,0.3,0.5,0.5,0.7,0.7l-2.1,2.3
		c-0.2-0.2-0.5-0.5-0.8-0.8c-1.5-1.4-3.9-3.8-6.5-4.3C84.5,9,81.4,9.8,79,11.8c-2.5,2.4-5.5,4.6-10,4.6c-0.1,0-0.1,0-0.2,0
		c-3.1,0-6.1-1.2-8.5-3.3l-0.9-0.8c-1-0.7-2.1-1.2-3.1-1.5c-6.3-1.4-9.5,2.7-9.5,2.7l-0.2,0.2c-2.4,2.1-5.4,3.3-8.7,3.4
		c-6,0.2-8.8-3.4-8.9-3.6c-1.9-2.4-4.7-3.7-7.7-3.8c-0.1,0-0.1,0-0.2,0C15.3,9.9,12,15.5,10.9,17.9z"/>
</g>
<path class="st0" d="M11.3,17.6l-2.8-1.3c1.4-3,5.5-9.8,13-9.8c0.1,0,0.2,0,0.2,0c3.9,0.1,7.6,1.9,10.1,4.9c0.1,0.1,2.1,2.5,6.4,2.4
	c2.5-0.1,4.8-1,6.6-2.5c0.7-0.9,5-5.5,12.6-3.7c1.9,0.4,3.8,1.4,5.5,2.9l0.8,0.7c1.7,1.2,3.6,1.8,5.6,1.8c3.2,0.1,5.5-1.5,8-3.8
	c3.2-2.7,7.3-3.7,11.6-2.8c3.5,0.7,6.4,3.5,8.1,5.1c0.3,0.3,0.5,0.5,0.7,0.7l-2.1,2.3c-0.2-0.2-0.5-0.5-0.8-0.8
	c-1.5-1.4-3.9-3.8-6.5-4.3c-3.4-0.7-6.5,0.1-8.9,2.1c-2.5,2.4-5.5,4.6-10,4.6c-0.1,0-0.1,0-0.2,0c-3.1,0-6.1-1.2-8.5-3.3L59.9,12
	c-1-0.7-2.1-1.2-3.1-1.5c-6.3-1.4-9.5,2.7-9.5,2.7L47,13.5c-2.4,2.1-5.4,3.3-8.7,3.4c-6,0.2-8.8-3.4-8.9-3.6
	c-1.9-2.4-4.7-3.7-7.7-3.8c-0.1,0-0.1,0-0.2,0C15.7,9.6,12.5,15.2,11.3,17.6z"/>
<g>
	<line class="st1" x1="22.2" y1="54.4" x2="83.4" y2="54.4"/>
	<rect x="22.2" y="52.9" class="st0" width="61.3" height="3.1"/>
</g>
<g>
	<line class="st1" x1="22.2" y1="59.4" x2="83.4" y2="59.4"/>
	<rect x="22.2" y="57.9" class="st0" width="61.3" height="3.1"/>
</g>
</svg>
