<?xml version="1.0" encoding="utf-8"?>
<!-- Generator: Adobe Illustrator 22.0.1, SVG Export Plug-In . SVG Version: 6.00 Build 0)  -->
<svg version="1.1" id="Camada_1" xmlns="http://www.w3.org/2000/svg" xmlns:xlink="http://www.w3.org/1999/xlink" x="0px" y="0px"
	 viewBox="0 0 61.5 66.4" style="enable-background:new 0 0 61.5 66.4;" xml:space="preserve">
<style type="text/css">
	.st0{fill:#1E0E00;}
</style>
<path class="st0" d="M59.5,59.1H1.7V1.3h57.8V59.1z M4.8,56h51.6V4.4H4.8V56z"/>
<path class="st0" d="M30.6,59.1c-15.9,0-28.9-13-28.9-28.9c0-15.9,13-28.9,28.9-28.9c15.9,0,28.9,13,28.9,28.9
	C59.5,46.1,46.5,59.1,30.6,59.1z M30.6,4.4C16.4,4.4,4.8,16,4.8,30.2C4.8,44.4,16.4,56,30.6,56c14.2,0,25.8-11.6,25.8-25.8
	C56.4,16,44.8,4.4,30.6,4.4z"/>
<rect x="1.6" y="61.5" class="st0" width="58.4" height="3.1"/>
</svg>
