<svg version="1.1" id="Camada_1" xmlns="http://www.w3.org/2000/svg" x="0" y="0" viewBox="0 0 61.5 60.6" xml:space="preserve"><style>.st0{fill:#1e0e00}</style><path class="st0" d="M59.5 59.1H1.7V1.3h57.8v57.8zM4.8 56h51.6V4.4H4.8V56z"/><path transform="rotate(-45.154 17.733 17.243)" class="st0" d="M-2.4 15.7h40.3v3.1H-2.4z"/><path class="st0" d="M27 1.4l-3.1 3.1L5.1 23.7l-.2.2-2.2 2.3-.7-.7v-3l2.9-3.1.2-.1L19.6 4.5l3-3.1zm-8.7 0l-2.6 2.7-.5.4L5.1 14.9l-1.3 1.2L2 18v-4.4l1.8-1.9 1.3-1.3 5.8-5.9.4-.4 2.6-2.7z"/></svg>