<?xml version="1.0" encoding="utf-8"?>
<!-- Generator: Adobe Illustrator 22.0.1, SVG Export Plug-In . SVG Version: 6.00 Build 0)  -->
<svg version="1.1" id="Camada_1" xmlns="http://www.w3.org/2000/svg" xmlns:xlink="http://www.w3.org/1999/xlink" x="0px" y="0px"
	 viewBox="0 0 80 78.7" style="enable-background:new 0 0 80 78.7;" xml:space="preserve">
<style type="text/css">
	.st0{fill:#1E0E00;}
</style>
<path class="st0" d="M68.6,68.3H10.8V10.6h57.8V68.3z M14,65.2h51.6V13.7H14V65.2z"/>
<path class="st0" d="M39.7,68.3c-15.9,0-28.9-13-28.9-28.9c0-15.9,13-28.9,28.9-28.9c15.9,0,28.9,13,28.9,28.9
	C68.6,55.4,55.7,68.3,39.7,68.3z M39.7,13.7C25.5,13.7,14,25.2,14,39.4c0,14.2,11.6,25.8,25.8,25.8c14.2,0,25.8-11.6,25.8-25.8
	C65.5,25.2,54,13.7,39.7,13.7z"/>
<g>
	<line class="st0" x1="78.3" y1="2.1" x2="3" y2="76"/>
	
		<rect x="-12.1" y="37.5" transform="matrix(0.7138 -0.7004 0.7004 0.7138 -15.6981 39.639)" class="st0" width="105.6" height="3.1"/>
</g>
<g>
	<line class="st0" x1="2.1" y1="1.9" x2="78.3" y2="76.7"/>
	
		<rect x="38.6" y="-14.1" transform="matrix(0.7001 -0.714 0.714 0.7001 -16.0353 40.5022)" class="st0" width="3.1" height="106.8"/>
</g>
</svg>
