<svg version="1.1" id="Camada_1" xmlns="http://www.w3.org/2000/svg" x="0" y="0" viewBox="0 0 80 78.7" xml:space="preserve"><style>.st0{fill:#1e0e00}</style><path class="st0" d="M68.6 68.3H10.8V10.6h57.8v57.7zM14 65.2h51.6V13.7H14v51.5z"/><path class="st0" d="M39.7 68.3c-15.9 0-28.9-13-28.9-28.9 0-15.9 13-28.9 28.9-28.9 15.9 0 28.9 13 28.9 28.9 0 16-12.9 28.9-28.9 28.9zm0-54.6C25.5 13.7 14 25.2 14 39.4s11.6 25.8 25.8 25.8c14.2 0 25.8-11.6 25.8-25.8-.1-14.2-11.6-25.7-25.9-25.7zM78.3 2.1L3 76"/><path transform="rotate(-44.457 40.647 39.024)" class="st0" d="M-12.1 37.5H93.5v3.1H-12.1z"/><path class="st0" d="M2.1 1.9l76.2 74.8"/><path transform="rotate(-45.563 40.202 39.343)" class="st0" d="M38.6-14.1h3.1V92.7h-3.1z"/></svg>