<svg version="1.1" id="Camada_1" xmlns="http://www.w3.org/2000/svg" x="0" y="0" viewBox="0 0 60.8 59.5" xml:space="preserve"><path d="M30.9 58.8C15 58.8 2 45.8 2 29.9 2 13.9 15 1 30.9 1s28.9 13 28.9 28.9-13 28.9-28.9 28.9zm0-54.7C16.7 4.1 5.1 15.7 5.1 29.9s11.6 25.8 25.8 25.8 25.8-11.6 25.8-25.8c0-14.2-11.6-25.8-25.8-25.8z" fill="#1e0e00"/><path d="M19.1 20.8l2.8 10.8c.6 2.4 1.2 4.6 1.6 6.8h.1c.5-2.2 1.2-4.4 1.9-6.7L29 20.8h3.3l3.3 10.6c.8 2.6 1.4 4.8 1.9 7h.1c.4-2.2.9-4.4 1.6-6.9l3-10.7H46l-6.9 21.3h-3.5l-3.3-10.2c-.7-2.4-1.4-4.5-1.9-7h-.1c-.5 2.6-1.2 4.8-1.9 7L25 42h-3.5l-6.4-21.3h4z"/></svg>