<?xml version="1.0" encoding="utf-8"?>
<!-- Generator: Adobe Illustrator 22.0.1, SVG Export Plug-In . SVG Version: 6.00 Build 0)  -->
<svg version="1.1" id="Camada_1" xmlns="http://www.w3.org/2000/svg" xmlns:xlink="http://www.w3.org/1999/xlink" x="0px" y="0px"
	 viewBox="0 0 60.8 59.5" style="enable-background:new 0 0 60.8 59.5;" xml:space="preserve">
<style type="text/css">
	.st0{fill:#1E0E00;}
</style>
<path class="st0" d="M30.9,58.8C15,58.8,2,45.8,2,29.9C2,13.9,15,1,30.9,1s28.9,13,28.9,28.9S46.8,58.8,30.9,58.8z M30.9,4.1
	C16.7,4.1,5.1,15.7,5.1,29.9s11.6,25.8,25.8,25.8s25.8-11.6,25.8-25.8C56.7,15.7,45.1,4.1,30.9,4.1z"/>
<g>
	<path d="M19.1,20.8l2.8,10.8c0.6,2.4,1.2,4.6,1.6,6.8h0.1c0.5-2.2,1.2-4.4,1.9-6.7L29,20.8h3.3l3.3,10.6c0.8,2.6,1.4,4.8,1.9,7h0.1
		c0.4-2.2,0.9-4.4,1.6-6.9l3-10.7h3.8l-6.9,21.3h-3.5l-3.3-10.2c-0.7-2.4-1.4-4.5-1.9-7h-0.1c-0.5,2.6-1.2,4.8-1.9,7l-3.4,10.1h-3.5
		l-6.4-21.3H19.1z"/>
</g>
</svg>
