<?xml version="1.0" encoding="utf-8"?>
<!-- Generator: Adobe Illustrator 22.0.1, SVG Export Plug-In . SVG Version: 6.00 Build 0)  -->
<svg version="1.1" id="Camada_1" xmlns="http://www.w3.org/2000/svg" xmlns:xlink="http://www.w3.org/1999/xlink" x="0px" y="0px"
	 viewBox="0 0 105.6 51.3" style="enable-background:new 0 0 105.6 51.3;" xml:space="preserve">
<style type="text/css">
	.st0{fill:#1E0E00;}
</style>
<g>
	<polygon class="st0" points="83.3,49.5 22,49.5 1.8,2.3 4.7,1.1 24.1,46.4 81.3,46.4 100.6,1.1 103.5,2.3 	"/>
	<path class="st0" d="M10.9,17.2l-2.8-1.3c1.4-3,5.5-9.8,13-9.8c0.1,0,0.2,0,0.2,0C25.2,6.2,28.9,8,31.4,11c0.1,0.1,2.1,2.5,6.4,2.4
		c2.5-0.1,4.8-1,6.6-2.5c0.7-0.9,5-5.5,12.6-3.7c1.9,0.4,3.8,1.4,5.5,2.9l0.8,0.7c1.7,1.2,3.6,1.8,5.6,1.8c3.2,0.1,5.5-1.5,8-3.8
		c3.2-2.7,7.3-3.7,11.6-2.8c3.5,0.7,6.4,3.5,8.1,5.1c0.3,0.3,0.5,0.5,0.7,0.7l-2.1,2.3c-0.2-0.2-0.5-0.5-0.8-0.8
		c-1.5-1.4-3.9-3.8-6.5-4.3c-3.4-0.7-6.5,0.1-8.9,2.1c-2.5,2.4-5.5,4.6-10,4.6c-0.1,0-0.1,0-0.2,0c-3.1,0-6.1-1.2-8.5-3.3l-0.9-0.8
		c-1-0.7-2.1-1.2-3.1-1.5c-6.3-1.4-9.5,2.7-9.5,2.7L46.6,13c-2.4,2.1-5.4,3.3-8.7,3.4c-6,0.2-8.8-3.4-8.9-3.6
		c-1.9-2.4-4.7-3.7-7.7-3.8c-0.1,0-0.1,0-0.2,0C15.3,9.2,12,14.8,10.9,17.2z"/>
</g>
<path class="st0" d="M11.3,16.9l-2.8-1.3c1.4-3,5.5-9.8,13-9.8c0.1,0,0.2,0,0.2,0c3.9,0.1,7.6,1.9,10.1,4.9c0.1,0.1,2.1,2.5,6.4,2.4
	c2.5-0.1,4.8-1,6.6-2.5c0.7-0.9,5-5.5,12.6-3.7c1.9,0.4,3.8,1.4,5.5,2.9l0.8,0.7c1.7,1.2,3.6,1.8,5.6,1.8c3.2,0.1,5.5-1.5,8-3.8
	c3.2-2.7,7.3-3.7,11.6-2.8c3.5,0.7,6.4,3.5,8.1,5.1c0.3,0.3,0.5,0.5,0.7,0.7l-2.1,2.3c-0.2-0.2-0.5-0.5-0.8-0.8
	c-1.5-1.4-3.9-3.8-6.5-4.3c-3.4-0.7-6.5,0.1-8.9,2.1c-2.5,2.4-5.5,4.6-10,4.6c-0.1,0-0.1,0-0.2,0c-3.1,0-6.1-1.2-8.5-3.3l-0.8-0.8
	c-1-0.7-2.1-1.2-3.1-1.5c-6.3-1.4-9.5,2.7-9.5,2.7L47,12.8c-2.4,2.1-5.4,3.3-8.7,3.4c-6,0.2-8.8-3.4-8.9-3.6
	c-1.9-2.4-4.7-3.7-7.7-3.8c-0.1,0-0.1,0-0.2,0C15.7,8.9,12.5,14.5,11.3,16.9z"/>
<path class="st0" d="M58.4,30.6c0,2.9-2.3,5.2-5.2,5.2S48,33.5,48,30.6s2.3-5.2,5.2-5.2C56,25.4,58.4,27.7,58.4,30.6z"/>
<path class="st0" d="M78.4,30.6c0,2.9-2.3,5.2-5.2,5.2c-2.9,0-5.2-2.3-5.2-5.2s2.3-5.2,5.2-5.2C76,25.4,78.4,27.7,78.4,30.6z"/>
<path class="st0" d="M38.4,30.6c0,2.9-2.3,5.2-5.2,5.2S28,33.5,28,30.6s2.3-5.2,5.2-5.2C36,25.4,38.4,27.7,38.4,30.6z"/>
</svg>
