<svg version="1.1" id="Camada_1" xmlns="http://www.w3.org/2000/svg" x="0" y="0" viewBox="0 0 105.6 51.4" xml:space="preserve"><style>.st0{fill:#1e0e00}.st1{fill:none}</style><path class="st0" d="M83.3 49.9H22L1.8 2.7l2.9-1.2 19.4 45.3h57.2l19.3-45.3 2.9 1.2z"/><path class="st0" d="M10.9 17.6l-2.8-1.3c1.4-3 5.5-9.8 13-9.8h.2c3.9.1 7.6 1.9 10.1 4.9.1.1 2.1 2.5 6.4 2.4 2.5-.1 4.8-1 6.6-2.5.7-.9 5-5.5 12.6-3.7 1.9.4 3.8 1.4 5.5 2.9l.8.7c1.7 1.2 3.6 1.8 5.6 1.8 3.2.1 5.5-1.5 8-3.8 3.2-2.7 7.3-3.7 11.6-2.8 3.5.7 6.4 3.5 8.1 5.1l.7.7-2.1 2.3-.8-.8c-1.5-1.4-3.9-3.8-6.5-4.3-3.4-.7-6.5.1-8.9 2.1-2.5 2.4-5.5 4.6-10 4.6h-.2c-3.1 0-6.1-1.2-8.5-3.3l-.9-.8c-1-.7-2.1-1.2-3.1-1.5-6.3-1.4-9.5 2.7-9.5 2.7l-.2.2c-2.4 2.1-5.4 3.3-8.7 3.4-6 .2-8.8-3.4-8.9-3.6-1.9-2.4-4.7-3.7-7.7-3.8h-.2c-5.8.2-9.1 5.8-10.2 8.2z"/><path class="st0" d="M11.3 17.3L8.5 16c1.4-3 5.5-9.8 13-9.8h.2c3.9.1 7.6 1.9 10.1 4.9.1.1 2.1 2.5 6.4 2.4 2.5-.1 4.8-1 6.6-2.5.7-.9 5-5.5 12.6-3.7 1.9.4 3.8 1.4 5.5 2.9l.8.7c1.7 1.2 3.6 1.8 5.6 1.8 3.2.1 5.5-1.5 8-3.8 3.2-2.7 7.3-3.7 11.6-2.8 3.5.7 6.4 3.5 8.1 5.1l.7.7-2.1 2.3-.8-.8c-1.5-1.4-3.9-3.8-6.5-4.3-3.4-.7-6.5.1-8.9 2.1-2.5 2.4-5.5 4.6-10 4.6h-.2c-3.1 0-6.1-1.2-8.5-3.3l-.8-.8c-1-.7-2.1-1.2-3.1-1.5-6.3-1.4-9.5 2.7-9.5 2.7l-.3.3c-2.4 2.1-5.4 3.3-8.7 3.4-6 .2-8.8-3.4-8.9-3.6-1.9-2.4-4.7-3.7-7.7-3.8h-.2c-5.8.1-9 5.7-10.2 8.1z"/><path class="st1" d="M1.9 15.2l101.6 32.3"/><path transform="rotate(-72.391 52.63 31.31)" class="st0" d="M51.1-22h3.1V84.6h-3.1z"/><path class="st1" d="M103.5 15.2L1.9 47.5"/><path transform="rotate(-17.617 52.707 31.301)" class="st0" d="M-.6 29.8H106v3.1H-.6z"/></svg>