<svg version="1.1" id="Camada_1" xmlns="http://www.w3.org/2000/svg" x="0" y="0" viewBox="0 0 105.6 52.9" xml:space="preserve"><style>.st0{fill:#1e0e00}</style><path class="st0" d="M83.3 51.2H22L1.8 4l2.9-1.2 19.4 45.3h57.2l19.3-45.3 2.9 1.2z"/><path class="st0" d="M10.9 18.9l-2.8-1.3c1.4-3 5.5-9.8 13-9.8h.2c3.9.1 7.6 1.9 10.1 4.9.1.1 2.1 2.5 6.4 2.4 2.5-.1 4.8-1 6.6-2.5.7-.9 5-5.5 12.6-3.7 1.9.4 3.8 1.4 5.5 2.9l.8.7c1.7 1.2 3.6 1.8 5.6 1.8 3.2.1 5.5-1.5 8-3.8 3.2-2.7 7.3-3.7 11.6-2.8 3.5.7 6.4 3.5 8.1 5.1l.7.7-2.1 2.3-.8-.8c-1.5-1.4-3.9-3.8-6.5-4.3-3.4-.7-6.5.1-8.9 2.1-2.5 2.4-5.5 4.6-10 4.6h-.2c-3.1 0-6.1-1.2-8.5-3.3l-.9-.8c-1-.7-2.1-1.2-3.1-1.5-6.3-1.4-9.5 2.7-9.5 2.7l-.2.2c-2.4 2.1-5.4 3.3-8.7 3.4-6 .2-8.8-3.4-8.9-3.6-1.9-2.4-4.7-3.7-7.7-3.8h-.2c-5.8.2-9.1 5.8-10.2 8.2z"/><path class="st0" d="M11.3 18.6l-2.8-1.3c1.4-3 5.5-9.8 13-9.8h.2c3.9.1 7.6 1.9 10.1 4.9.1.1 2.1 2.5 6.4 2.4 2.5-.1 4.8-1 6.6-2.5.7-.9 5-5.5 12.6-3.7 1.9.4 3.8 1.4 5.5 2.9l.8.7c1.7 1.2 3.6 1.8 5.6 1.8 3.2.1 5.5-1.5 8-3.8 3.2-2.7 7.3-3.7 11.6-2.8 3.5.7 6.4 3.5 8.1 5.1l.7.7-2.1 2.3-.8-.8c-1.5-1.4-3.9-3.8-6.5-4.3-3.4-.7-6.5.1-8.9 2.1-2.5 2.4-5.5 4.6-10 4.6h-.2c-3.1 0-6.1-1.2-8.5-3.3l-.8-.8c-1-.7-2.1-1.2-3.1-1.5-6.3-1.4-9.5 2.7-9.5 2.7l-.3.3c-2.4 2.1-5.4 3.3-8.7 3.4-6 .2-8.8-3.4-8.9-3.6-1.9-2.4-4.7-3.7-7.7-3.8h-.2c-5.8.1-9 5.7-10.2 8.1z"/><path d="M41.1 38.1c.6.4 2.1 1 3.6 1 2.8 0 3.7-1.8 3.7-3.1 0-2.3-2.1-3.2-4.2-3.2H43V31h1.2c1.6 0 3.6-.8 3.6-2.7 0-1.3-.8-2.4-2.8-2.4-1.3 0-2.5.6-3.2 1.1l-.6-1.6c.8-.6 2.5-1.2 4.2-1.2 3.2 0 4.6 1.9 4.6 3.9 0 1.7-1 3.1-3 3.8 2 .4 3.6 1.9 3.6 4.2 0 2.6-2 4.9-5.9 4.9-1.8 0-3.4-.6-4.2-1.1l.6-1.8zm22.1-5.8c0 5.5-2 8.6-5.6 8.6-3.2 0-5.3-3-5.4-8.3 0-5.4 2.3-8.4 5.6-8.4 3.4-.1 5.4 2.9 5.4 8.1zm-8.9.2c0 4.2 1.3 6.6 3.3 6.6 2.2 0 3.3-2.6 3.3-6.8 0-4-1-6.6-3.3-6.6-1.9.1-3.3 2.4-3.3 6.8z"/><path class="st0" d="M66.7 24.5c0 .9-.8 1.7-1.7 1.7-1 0-1.7-.8-1.7-1.7 0-.9.8-1.7 1.7-1.7.9 0 1.7.8 1.7 1.7z"/></svg>