<?xml version="1.0" encoding="utf-8"?>
<!-- Generator: Adobe Illustrator 22.0.1, SVG Export Plug-In . SVG Version: 6.00 Build 0)  -->
<svg version="1.1" id="Camada_1" xmlns="http://www.w3.org/2000/svg" xmlns:xlink="http://www.w3.org/1999/xlink" x="0px" y="0px"
	 viewBox="0 0 105.6 52.1" style="enable-background:new 0 0 105.6 52.1;" xml:space="preserve">
<style type="text/css">
	.st0{fill:#1E0E00;}
</style>
<g>
	<polygon class="st0" points="83.3,50.4 22,50.4 1.8,3.2 4.7,2 24.1,47.3 81.3,47.3 100.6,2 103.5,3.2 	"/>
	<path class="st0" d="M10.9,18.1l-2.8-1.3c1.4-3,5.5-9.8,13-9.8c0.1,0,0.2,0,0.2,0c3.9,0.1,7.6,1.9,10.1,4.9
		c0.1,0.1,2.1,2.5,6.4,2.4c2.5-0.1,4.8-1,6.6-2.5c0.7-0.9,5-5.5,12.6-3.7c1.9,0.4,3.8,1.4,5.5,2.9l0.8,0.7c1.7,1.2,3.6,1.8,5.6,1.8
		c3.2,0.1,5.5-1.5,8-3.8c3.2-2.7,7.3-3.7,11.6-2.8c3.5,0.7,6.4,3.5,8.1,5.1c0.3,0.3,0.5,0.5,0.7,0.7l-2.1,2.3
		c-0.2-0.2-0.5-0.5-0.8-0.8c-1.5-1.4-3.9-3.8-6.5-4.3c-3.4-0.7-6.5,0.1-8.9,2.1c-2.5,2.4-5.5,4.6-10,4.6c-0.1,0-0.1,0-0.2,0
		c-3.1,0-6.1-1.2-8.5-3.3l-0.9-0.8c-1-0.7-2.1-1.2-3.1-1.5c-6.3-1.4-9.5,2.7-9.5,2.7L46.6,14c-2.4,2.1-5.4,3.3-8.7,3.4
		c-6,0.2-8.8-3.4-8.9-3.6c-1.9-2.4-4.7-3.7-7.7-3.8c-0.1,0-0.1,0-0.2,0C15.3,10.1,12,15.7,10.9,18.1z"/>
</g>
</svg>
