<?xml version="1.0" encoding="utf-8"?>
<!-- Generator: Adobe Illustrator 22.0.1, SVG Export Plug-In . SVG Version: 6.00 Build 0)  -->
<svg version="1.1" id="Camada_1" xmlns="http://www.w3.org/2000/svg" xmlns:xlink="http://www.w3.org/1999/xlink" x="0px" y="0px"
	 viewBox="0 0 105.6 52.9" style="enable-background:new 0 0 105.6 52.9;" xml:space="preserve">
<style type="text/css">
	.st0{fill:#1E0E00;}
</style>
<g>
	<polygon class="st0" points="83.3,51.2 22,51.2 1.8,4 4.7,2.8 24.1,48.1 81.3,48.1 100.6,2.8 103.5,4 	"/>
	<path class="st0" d="M10.9,18.9l-2.8-1.3c1.4-3,5.5-9.8,13-9.8c0.1,0,0.2,0,0.2,0c3.9,0.1,7.6,1.9,10.1,4.9
		c0.1,0.1,2.1,2.5,6.4,2.4c2.5-0.1,4.8-1,6.6-2.5c0.7-0.9,5-5.5,12.6-3.7c1.9,0.4,3.8,1.4,5.5,2.9l0.8,0.7c1.7,1.2,3.6,1.8,5.6,1.8
		c3.2,0.1,5.5-1.5,8-3.8c3.2-2.7,7.3-3.7,11.6-2.8c3.5,0.7,6.4,3.5,8.1,5.1c0.3,0.3,0.5,0.5,0.7,0.7l-2.1,2.3
		c-0.2-0.2-0.5-0.5-0.8-0.8c-1.5-1.4-3.9-3.8-6.5-4.3c-3.4-0.7-6.5,0.1-8.9,2.1c-2.5,2.4-5.5,4.6-10,4.6c-0.1,0-0.1,0-0.2,0
		c-3.1,0-6.1-1.2-8.5-3.3l-0.9-0.8c-1-0.7-2.1-1.2-3.1-1.5c-6.3-1.4-9.5,2.7-9.5,2.7l-0.2,0.2c-2.4,2.1-5.4,3.3-8.7,3.4
		c-6,0.2-8.8-3.4-8.9-3.6c-1.9-2.4-4.7-3.7-7.7-3.8c-0.1,0-0.1,0-0.2,0C15.3,10.9,12,16.5,10.9,18.9z"/>
</g>
<path class="st0" d="M11.3,18.6l-2.8-1.3c1.4-3,5.5-9.8,13-9.8c0.1,0,0.2,0,0.2,0c3.9,0.1,7.6,1.9,10.1,4.9c0.1,0.1,2.1,2.5,6.4,2.4
	c2.5-0.1,4.8-1,6.6-2.5c0.7-0.9,5-5.5,12.6-3.7c1.9,0.4,3.8,1.4,5.5,2.9l0.8,0.7c1.7,1.2,3.6,1.8,5.6,1.8c3.2,0.1,5.5-1.5,8-3.8
	c3.2-2.7,7.3-3.7,11.6-2.8c3.5,0.7,6.4,3.5,8.1,5.1c0.3,0.3,0.5,0.5,0.7,0.7l-2.1,2.3c-0.2-0.2-0.5-0.5-0.8-0.8
	c-1.5-1.4-3.9-3.8-6.5-4.3c-3.4-0.7-6.5,0.1-8.9,2.1c-2.5,2.4-5.5,4.6-10,4.6c-0.1,0-0.1,0-0.2,0c-3.1,0-6.1-1.2-8.5-3.3L59.9,13
	c-1-0.7-2.1-1.2-3.1-1.5c-6.3-1.4-9.5,2.7-9.5,2.7L47,14.5c-2.4,2.1-5.4,3.3-8.7,3.4c-6,0.2-8.8-3.4-8.9-3.6
	c-1.9-2.4-4.7-3.7-7.7-3.8c-0.1,0-0.1,0-0.2,0C15.7,10.6,12.5,16.2,11.3,18.6z"/>
<g>
	<path d="M41.1,38.1c0.6,0.4,2.1,1,3.6,1c2.8,0,3.7-1.8,3.7-3.1c0-2.3-2.1-3.2-4.2-3.2h-1.2V31h1.2c1.6,0,3.6-0.8,3.6-2.7
		c0-1.3-0.8-2.4-2.8-2.4c-1.3,0-2.5,0.6-3.2,1.1l-0.6-1.6c0.8-0.6,2.5-1.2,4.2-1.2c3.2,0,4.6,1.9,4.6,3.9c0,1.7-1,3.1-3,3.8v0
		c2,0.4,3.6,1.9,3.6,4.2c0,2.6-2,4.9-5.9,4.9c-1.8,0-3.4-0.6-4.2-1.1L41.1,38.1z"/>
	<path d="M63.2,32.3c0,5.5-2,8.6-5.6,8.6c-3.2,0-5.3-3-5.4-8.3c0-5.4,2.3-8.4,5.6-8.4C61.2,24.1,63.2,27.1,63.2,32.3z M54.3,32.5
		c0,4.2,1.3,6.6,3.3,6.6c2.2,0,3.3-2.6,3.3-6.8c0-4-1-6.6-3.3-6.6C55.7,25.8,54.3,28.1,54.3,32.5z"/>
</g>
<path class="st0" d="M66.7,24.5c0,0.9-0.8,1.7-1.7,1.7c-1,0-1.7-0.8-1.7-1.7c0-0.9,0.8-1.7,1.7-1.7C65.9,22.8,66.7,23.6,66.7,24.5z"
	/>
</svg>
